<?xml version="1.0" encoding="UTF-8"?>
<svg version="1.1" xmlns="http://www.w3.org/2000/svg" width="258" height="303">
<path d="M0 0 C85.14 0 170.28 0 258 0 C258 99.99 258 199.98 258 303 C172.86 303 87.72 303 0 303 C0 203.01 0 103.02 0 0 Z " fill="#FEFEFE" transform="translate(0,0)"/>
<path d="M0 0 C4.05403462 2.08180156 5.88419292 3.97996655 8 8 C8.33 8.33 8.66 8.66 9 9 C8.56154937 15.30869351 6.93063688 20.808736 4.83984375 26.75 C4.53051407 27.64871826 4.22118439 28.54743652 3.90248108 29.47338867 C2.9214637 32.31818272 1.92967764 35.15908155 0.9375 38 C0.26686071 39.93855404 -0.40306846 41.8773539 -1.07226562 43.81640625 C-2.70664441 48.54715351 -4.35068571 53.27444015 -6 58 C-5.34 58.33 -4.68 58.66 -4 59 C-3.34 57.35 -2.68 55.7 -2 54 C-0.35 54.33 1.3 54.66 3 55 C2.41632611 61.30367803 0.95928381 66.98660063 -1 73 C-1.66 73 -2.32 73 -3 73 C-3.12117187 73.60328125 -3.24234375 74.2065625 -3.3671875 74.828125 C-3.53476563 75.62734375 -3.70234375 76.4265625 -3.875 77.25 C-4.11863281 78.43335937 -4.11863281 78.43335937 -4.3671875 79.640625 C-5 82 -5 82 -6.01686096 83.78652954 C-7.24846942 86.55941195 -7.2976045 88.743296 -7.36303711 91.77490234 C-7.39324448 92.93645844 -7.42345184 94.09801453 -7.45457458 95.29476929 C-7.47858841 96.5458548 -7.50260223 97.79694031 -7.52734375 99.0859375 C-7.5799776 101.05651022 -7.63262777 103.02708267 -7.68623447 104.99762917 C-7.81511578 109.85126242 -7.92308611 114.70539112 -8.02905273 119.55957031 C-8.08924621 122.28480812 -8.15704302 125.00967176 -8.2325592 127.73452759 C-8.30284021 130.2984898 -8.36125737 132.86281105 -8.40647888 135.42733765 C-8.72169817 146.46262952 -8.72169817 146.46262952 -12 151 C-14.6875 152.375 -14.6875 152.375 -17 153 C-17 153.66 -17 154.32 -17 155 C-18.65 155.33 -20.3 155.66 -22 156 C-21.86722656 157.02996094 -21.73445312 158.05992187 -21.59765625 159.12109375 C-20.54803465 167.5051573 -19.72558193 175.84601352 -19.34204102 184.28881836 C-19.20175702 187.21907613 -18.98960215 190.06197772 -18.50390625 192.95703125 C-17.7476342 197.52397639 -17.61370623 202.10374649 -17.39453125 206.72265625 C-17.17821042 210.8924267 -16.69430318 214.87791656 -16 219 C-15.82644768 221.53992449 -15.68347629 224.08202899 -15.5625 226.625 C-14.97382752 236.43620795 -13.97800735 246.21992646 -13 256 C1.19 256 15.38 256 30 256 C30 256.33 30 256.66 30 257 C15.81 257 1.62 257 -13 257 C-13 259.97 -13 262.94 -13 266 C-14.93505023 266.24900646 -16.87325934 266.47356242 -18.8125 266.6875 C-20.43091797 266.87892578 -20.43091797 266.87892578 -22.08203125 267.07421875 C-25 267 -25 267 -26.78125 265.95703125 C-28.53663073 263.13829489 -29.06678396 260.21455449 -29.6875 257 C-30.0305946 255.35115397 -30.37584122 253.70275499 -30.72265625 252.0546875 C-30.92004395 251.1069043 -31.11743164 250.15912109 -31.32080078 249.18261719 C-32.52428314 243.54329441 -33.82964364 237.92700099 -35.12316895 232.30780029 C-35.63052517 230.10096732 -36.13549175 227.89360115 -36.63964844 225.68603516 C-38.42257835 217.87918521 -40.21252862 210.07402056 -42.01385498 202.27139282 C-42.93311528 198.28527392 -43.84820286 194.29820324 -44.76263428 190.31097412 C-45.20908748 188.3686988 -45.6573422 186.42683662 -46.10748291 184.4854126 C-46.74169567 181.74913956 -47.36953293 179.01147135 -47.99609375 176.2734375 C-48.27837578 175.06605927 -48.27837578 175.06605927 -48.56636047 173.83428955 C-49.76330498 168.56573163 -50.48577656 163.37941369 -51 158 C-52.19625 158.103125 -53.3925 158.20625 -54.625 158.3125 C-57.93296832 158.59766968 -59.04283598 157.97109157 -61.859375 156.0703125 C-65.8745283 152.48385716 -68.68121209 148.02976694 -71.625 143.5625 C-72.18445313 142.72912109 -72.74390625 141.89574219 -73.3203125 141.03710938 C-77.89123308 134.21846016 -77.89123308 134.21846016 -79.57666016 130.83325195 C-83.12233223 126.68782334 -86.54763138 126.67374649 -91.796875 126.1015625 C-92.74564514 125.97687592 -93.69441528 125.85218933 -94.67193604 125.72372437 C-97.69537948 125.33224835 -100.72187351 124.97822536 -103.75 124.625 C-105.80369717 124.36573894 -107.85708916 124.10404805 -109.91015625 123.83984375 C-114.9370011 123.19834046 -119.96690543 122.59037934 -125 122 C-124.92468552 122.67696426 -124.84937103 123.35392853 -124.77177429 124.05140686 C-124.67652969 124.94460129 -124.5812851 125.83779572 -124.4831543 126.75805664 C-124.38721481 127.6412709 -124.29127533 128.52448517 -124.19242859 129.4344635 C-123.93492148 132.86765335 -124.29516655 136.03947523 -124.8125 139.4375 C-125.00457031 140.72914063 -125.19664063 142.02078125 -125.39453125 143.3515625 C-125.89183525 146.34822014 -126.42641147 149.32983966 -127 152.3125 C-127.89797111 157.02510808 -128.44065272 161.73260782 -128.9375 166.5 C-129.60166629 172.8718453 -130.45693196 179.17924151 -131.5 185.5 C-132.7692508 193.21666551 -133.71083443 200.93178739 -134.53515625 208.70703125 C-135.41192322 216.94641637 -136.41727092 225.17628334 -138 233.3125 C-139.09108102 238.98953094 -139.6702375 244.7051331 -140.21484375 250.45629883 C-140.71919956 255.46612263 -141.67881006 260.13912199 -143 265 C-145.97 265.33 -148.94 265.66 -152 266 C-152.33 266.99 -152.66 267.98 -153 269 C-158.61 269 -164.22 269 -170 269 C-168.75013836 250.49279959 -167.24523054 232.03049041 -165.46875 213.56640625 C-165.22959426 211.05925713 -164.99062541 208.55209018 -164.75183105 206.04490662 C-164.25650842 200.85256018 -163.758782 195.66045159 -163.25927734 190.46850586 C-162.74982517 185.17128564 -162.24350508 179.87378393 -161.74072266 174.57592773 C-161.12592376 168.098301 -160.50742059 161.62103956 -159.88587952 155.14405632 C-159.65194254 152.70154452 -159.4191198 150.25892571 -159.18748474 147.81619453 C-156.8789899 123.5097565 -156.8789899 123.5097565 -155 113 C-156.216875 112.95875 -157.43375 112.9175 -158.6875 112.875 C-159.37199219 112.85179687 -160.05648437 112.82859375 -160.76171875 112.8046875 C-166.67476673 113.32066027 -170.43046095 116.78518496 -174.81640625 120.44140625 C-176.97915323 121.9851201 -178.46172435 122.41680756 -181 123 C-181.495 123.99 -181.495 123.99 -182 125 C-184.20908114 124.61912394 -185.87374847 124.07400952 -187.8125 122.9375 C-189.76327018 119.75466444 -188.76716525 116.52327743 -188 113 C-187.67 112.01 -187.34 111.02 -187 110 C-186.34 110 -185.68 110 -185 110 C-184.80664062 109.26394531 -184.61328125 108.52789062 -184.4140625 107.76953125 C-184.15367187 106.79371094 -183.89328125 105.81789063 -183.625 104.8125 C-183.36976563 103.84957031 -183.11453125 102.88664062 -182.8515625 101.89453125 C-180.65840178 94.43979686 -180.65840178 94.43979686 -178.01171875 92.671875 C-177.24472656 92.36765625 -176.47773438 92.0634375 -175.6875 91.75 C-174.92824219 91.43546875 -174.16898438 91.1209375 -173.38671875 90.796875 C-166.44836035 88.48030362 -159.4771221 88.83034715 -152.24609375 88.8515625 C-151.55424925 88.85238453 -150.86240475 88.85320656 -150.14959526 88.8540535 C-132.86398817 88.88623265 -115.5984783 89.4975505 -98.32788086 90.171875 C-93.8796353 90.34531909 -89.43101292 90.50541562 -84.9821558 90.66228294 C-81.49795232 90.7868687 -78.01407335 90.91916762 -74.53024101 91.05369949 C-72.88824385 91.11604589 -71.24614847 91.17586543 -69.60396004 91.23295212 C-52.93485698 91.81952876 -52.93485698 91.81952876 -46 94 C-44.4375 96.625 -44.4375 96.625 -44 99 C-43.34 99 -42.68 99 -42 99 C-42 105.93 -42 112.86 -42 120 C-46.89536845 121.63178948 -51.93660854 121.18455578 -57.0625 121.1875 C-58.70508789 121.20586914 -58.70508789 121.20586914 -60.38085938 121.22460938 C-67.16511427 121.23673133 -73.4119774 120.63841903 -80 119 C-79.56526367 119.46019531 -79.13052734 119.92039062 -78.68261719 120.39453125 C-73.54130707 125.90008466 -69.52369088 132.02688837 -65.4296875 138.31640625 C-65.02331055 138.91984863 -64.61693359 139.52329102 -64.19824219 140.14501953 C-63 142 -63 142 -61.93457031 144.02294922 C-60.77273713 146.04775665 -59.79096799 147.49736996 -58 149 C-54.61970583 149.7716418 -51.4253473 149.34276135 -48 149 C-45.67988588 148.8852395 -43.35955428 148.77482106 -41.0390625 148.66796875 C-38.56746024 148.51168784 -36.09610435 148.35146565 -33.625 148.1875 C-31.73974609 148.08211914 -31.73974609 148.08211914 -29.81640625 147.97460938 C-28.00849609 147.85375977 -28.00849609 147.85375977 -26.1640625 147.73046875 C-25.07561035 147.66239014 -23.9871582 147.59431152 -22.86572266 147.52416992 C-19.65432465 146.93677245 -18.34967917 146.23012492 -16 144 C-15.39958792 141.81228885 -15.39958792 141.81228885 -15.48583984 139.3359375 C-15.4725766 138.39065186 -15.45931335 137.44536621 -15.44564819 136.47143555 C-15.45069366 135.44961182 -15.45573914 134.42778809 -15.4609375 133.375 C-15.44914459 132.31772705 -15.43735168 131.2604541 -15.42520142 130.17114258 C-15.3898444 126.7806139 -15.38077058 123.39069804 -15.375 120 C-15.35858377 116.6380527 -15.33631073 113.27637791 -15.30337524 109.91455078 C-15.28397307 107.82315018 -15.27438518 105.73162629 -15.27645874 103.64013672 C-15.21111776 94.52757649 -13.91572317 85.92788231 -10.875 77.3125 C-10.52179688 76.29800781 -10.16859375 75.28351563 -9.8046875 74.23828125 C-9.53914062 73.49964844 -9.27359375 72.76101562 -9 72 C-11.16400925 72.80935834 -11.16400925 72.80935834 -11.7902832 74.90185547 C-12.04124756 75.71541504 -12.29221191 76.52897461 -12.55078125 77.3671875 C-12.83759766 78.25277344 -13.12441406 79.13835937 -13.41992188 80.05078125 C-14.01167084 81.92314231 -14.59511044 83.7981512 -15.16992188 85.67578125 C-17.39791213 92.4832548 -17.39791213 92.4832548 -20.5078125 95.15234375 C-24.3941709 96.47419292 -26.3527602 95.79046317 -30 94 C-34.5752719 88.96987651 -34.43169255 82.80343256 -34.1796875 76.34765625 C-34.09074219 74.69056641 -34.09074219 74.69056641 -34 73 C-34.00257813 72.02933594 -34.00515625 71.05867188 -34.0078125 70.05859375 C-33.78026621 60.76712029 -30.11190534 53.13610192 -26 45 C-25.1651709 43.34653564 -25.1651709 43.34653564 -24.31347656 41.65966797 C-22.72723708 38.53749304 -21.11620866 35.42895099 -19.49005127 32.32739258 C-18.83683905 31.08048653 -18.1869813 29.83181667 -17.54071045 28.58129883 C-14.13961066 22.02895089 -10.94310657 16.40729022 -5.45068359 11.42944336 C-3.3931172 9.40200289 -2.48976601 7.27011675 -1.5625 4.5625 C-1.25441406 3.69753906 -0.94632813 2.83257813 -0.62890625 1.94140625 C-0.42136719 1.30074219 -0.21382812 0.66007812 0 0 Z " fill="#895127" transform="translate(222,19)"/>
<path d="M0 0 C1.10214844 0.09732422 2.20429687 0.19464844 3.33984375 0.29492188 C11.42962862 1.21399221 11.42962862 1.21399221 14.828125 4.75 C19.31179828 15.77011264 16.29379334 27.95492428 14.125 39.25 C13.22702889 43.96260808 12.68434728 48.67010782 12.1875 53.4375 C11.52333371 59.8093453 10.66806804 66.11674151 9.625 72.4375 C8.3557492 80.15416551 7.41416557 87.86928739 6.58984375 95.64453125 C5.71307678 103.88391637 4.70772908 112.11378334 3.125 120.25 C2.03391898 125.92703094 1.4547625 131.6426331 0.91015625 137.39379883 C0.40580044 142.40362263 -0.55381006 147.07662199 -1.875 151.9375 C-4.845 152.2675 -7.815 152.5975 -10.875 152.9375 C-11.205 153.9275 -11.535 154.9175 -11.875 155.9375 C-17.485 155.9375 -23.095 155.9375 -28.875 155.9375 C-27.62513836 137.43029959 -26.12023054 118.96799041 -24.34375 100.50390625 C-24.10459426 97.99675713 -23.86562541 95.48959018 -23.62683105 92.98240662 C-23.13150842 87.79006018 -22.633782 82.59795159 -22.13427734 77.40600586 C-21.62482517 72.10878564 -21.11850508 66.81128393 -20.61572266 61.51342773 C-20.00092376 55.035801 -19.38242059 48.55853956 -18.76087952 42.08155632 C-18.52694254 39.63904452 -18.2941198 37.19642571 -18.06248474 34.75369453 C-15.24591969 5.09772019 -15.24591969 5.09772019 -13.875 -0.0625 C-9.79508342 -2.10245829 -4.41019974 -0.49429068 0 0 Z " fill="#A36634" transform="translate(80.875,132.0625)"/>
<path d="M0 0 C0.6918445 0.00082203 1.383689 0.00164406 2.09649849 0.002491 C19.38210558 0.03467015 36.64761545 0.645988 53.91821289 1.3203125 C58.36645845 1.49375659 62.81508083 1.65385312 67.26393795 1.81072044 C70.74814143 1.9353062 74.2320204 2.06760512 77.71585274 2.20213699 C79.3578499 2.26448339 80.99994528 2.32430293 82.64213371 2.38138962 C99.31123677 2.96796626 99.31123677 2.96796626 106.24609375 5.1484375 C107.80859375 7.7734375 107.80859375 7.7734375 108.24609375 10.1484375 C108.90609375 10.1484375 109.56609375 10.1484375 110.24609375 10.1484375 C110.24609375 17.0784375 110.24609375 24.0084375 110.24609375 31.1484375 C105.38345544 32.76931694 100.40099666 32.37484791 95.30859375 32.3984375 C94.23029297 32.4190625 93.15199219 32.4396875 92.04101562 32.4609375 C85.35143568 32.49300259 79.54739296 31.67995723 73.10766602 29.89697266 C68.67915426 28.73855468 64.22502175 28.22324379 59.68359375 27.7109375 C58.69270752 27.59242432 57.70182129 27.47391113 56.6809082 27.35180664 C50.99679111 26.67806034 45.30840374 26.04186624 39.62034607 25.40242004 C38.06420607 25.22737763 36.50810474 25.0519911 34.95204163 24.87626648 C31.11568981 24.44304193 27.27901351 24.01373856 23.44116211 23.59399414 C15.64978882 22.73062531 7.93461148 21.7092489 0.24609375 20.1484375 C0.24609375 20.8084375 0.24609375 21.4684375 0.24609375 22.1484375 C-0.72070312 22.2721875 -1.6875 22.3959375 -2.68359375 22.5234375 C-11.06831793 23.85171064 -16.33760279 25.40352957 -22.703125 31.40625 C-24.82936018 33.21253741 -26.09258663 33.58022547 -28.75390625 34.1484375 C-29.08390625 34.8084375 -29.41390625 35.4684375 -29.75390625 36.1484375 C-31.96298739 35.76756144 -33.62765472 35.22244702 -35.56640625 34.0859375 C-37.51717643 30.90310194 -36.5210715 27.67171493 -35.75390625 24.1484375 C-35.42390625 23.1584375 -35.09390625 22.1684375 -34.75390625 21.1484375 C-34.09390625 21.1484375 -33.43390625 21.1484375 -32.75390625 21.1484375 C-32.56054688 20.41238281 -32.3671875 19.67632812 -32.16796875 18.91796875 C-31.90757813 17.94214844 -31.6471875 16.96632813 -31.37890625 15.9609375 C-31.12367187 14.99800781 -30.8684375 14.03507812 -30.60546875 13.04296875 C-28.41230803 5.58823436 -28.41230803 5.58823436 -25.765625 3.8203125 C-24.99863281 3.51609375 -24.23164062 3.211875 -23.44140625 2.8984375 C-22.68214844 2.58390625 -21.92289063 2.269375 -21.140625 1.9453125 C-14.2022666 -0.37125888 -7.23102835 -0.02121535 0 0 Z " fill="#613414" transform="translate(69.75390625,107.8515625)"/>
<path d="M0 0 C2.1294432 2.1294432 1.7053304 6.55187495 2 9.5 C2.08757568 10.34844482 2.17515137 11.19688965 2.26538086 12.07104492 C2.90647841 18.50293233 3.36085651 24.93395554 3.65820312 31.390625 C3.79860173 34.2845555 4.01517251 37.09019876 4.49609375 39.94921875 C5.25091104 44.51908154 5.38616731 49.1010815 5.60546875 53.72265625 C5.82178958 57.8924267 6.30569682 61.87791656 7 66 C7.17355232 68.53992449 7.31652371 71.08202899 7.4375 73.625 C8.02617248 83.43620795 9.02199265 93.21992646 10 103 C24.19 103 38.38 103 53 103 C53 103.33 53 103.66 53 104 C38.81 104 24.62 104 10 104 C10 106.97 10 109.94 10 113 C8.06494977 113.24900646 6.12674066 113.47356242 4.1875 113.6875 C3.10855469 113.81511719 2.02960938 113.94273437 0.91796875 114.07421875 C-2 114 -2 114 -3.78125 112.95703125 C-5.53663073 110.13829489 -6.06678396 107.21455449 -6.6875 104 C-7.0305946 102.35115397 -7.37584122 100.70275499 -7.72265625 99.0546875 C-7.92004395 98.1069043 -8.11743164 97.15912109 -8.32080078 96.18261719 C-9.52421566 90.5436106 -10.82984589 84.92774641 -12.1234436 79.30889893 C-12.63097335 77.09899056 -13.13475166 74.88825791 -13.63745117 72.67724609 C-15.40692035 64.90207574 -17.1993077 57.13328344 -19.03964233 49.37454224 C-19.97361502 45.42845591 -20.8962008 41.47974735 -21.81756592 37.53070068 C-22.26749648 35.61496466 -22.72250158 33.70041235 -23.18292236 31.78717041 C-25.68527696 21.37919753 -27.80439729 11.77246862 -27 1 C-7.77785664 -0.47054649 -7.77785664 -0.47054649 0 0 Z " fill="#A16433" transform="translate(199,172)"/>
<path d="M0 0 C1.65 0.33 3.3 0.66 5 1 C4.41632611 7.30367803 2.95928381 12.98660063 1 19 C0.34 19 -0.32 19 -1 19 C-1.12117187 19.60328125 -1.24234375 20.2065625 -1.3671875 20.828125 C-1.61855469 22.02695313 -1.61855469 22.02695313 -1.875 23.25 C-2.11863281 24.43335938 -2.11863281 24.43335938 -2.3671875 25.640625 C-3 28 -3 28 -4.01686096 29.78652954 C-5.24846942 32.55941195 -5.2976045 34.743296 -5.36303711 37.77490234 C-5.39324448 38.93645844 -5.42345184 40.09801453 -5.45457458 41.29476929 C-5.47858841 42.5458548 -5.50260223 43.79694031 -5.52734375 45.0859375 C-5.5799776 47.05651022 -5.63262777 49.02708267 -5.68623447 50.99762917 C-5.81511578 55.85126242 -5.92308611 60.70539112 -6.02905273 65.55957031 C-6.08924621 68.28480812 -6.15704302 71.00967176 -6.2325592 73.73452759 C-6.30284021 76.2984898 -6.36125737 78.86281105 -6.40647888 81.42733765 C-6.72169817 92.46262952 -6.72169817 92.46262952 -10 97 C-12.6875 98.375 -12.6875 98.375 -15 99 C-15 99.66 -15 100.32 -15 101 C-17.475 101.495 -17.475 101.495 -20 102 C-20.33 101.34 -20.66 100.68 -21 100 C-29.91 100 -38.82 100 -48 100 C-47.67 100.99 -47.34 101.98 -47 103 C-46.96045766 105.33299825 -46.95598268 107.66708189 -47 110 C-49 107 -49 107 -49 104 C-50.19625 104.103125 -51.3925 104.20625 -52.625 104.3125 C-55.93296832 104.59766968 -57.04283598 103.97109157 -59.859375 102.0703125 C-63.8745283 98.48385716 -66.68121209 94.02976694 -69.625 89.5625 C-70.18445313 88.72912109 -70.74390625 87.89574219 -71.3203125 87.03710938 C-75.8903408 80.21979122 -75.8903408 80.21979122 -77.58544922 76.82226562 C-81.11170895 72.70057073 -84.43646841 72.76395369 -89.65625 72.27734375 C-90.59553345 72.16451553 -91.53481689 72.05168732 -92.50256348 71.93544006 C-95.49940634 71.57704815 -98.49844465 71.25382035 -101.5 70.9375 C-104.50121093 70.61592451 -107.5002699 70.28625183 -110.49743652 69.92884827 C-112.36032949 69.7069721 -114.22581334 69.50564635 -116.09338379 69.32737732 C-120.38679187 68.8189595 -122.3895307 68.58018627 -125.60351562 65.52563477 C-127 63 -127 63 -127 61 C-128.03898437 60.95101562 -129.07796875 60.90203125 -130.1484375 60.8515625 C-137.91953317 60.44790554 -145.41572228 59.87783799 -153 58 C-151.515 57.505 -151.515 57.505 -150 57 C-150 56.34 -150 55.68 -150 55 C-139.19095684 55.90788421 -128.41872848 57.1455507 -117.64892578 58.42919922 C-116.08759828 58.61453753 -114.52623765 58.79959695 -112.96484375 58.984375 C-112.19742859 59.07530426 -111.43001343 59.16623352 -110.63934326 59.25991821 C-105.99471897 59.79968345 -101.35526849 60.23086472 -96.69140625 60.578125 C-79.69691561 61.95072266 -79.69691561 61.95072266 -74.625 67.25 C-73.34546182 69.11988305 -72.14272852 71.04351026 -71 73 C-70.15757625 74.25488143 -69.30538487 75.50324191 -68.4453125 76.74609375 C-66.70949233 79.26899383 -65.01382585 81.80976536 -63.359375 84.38671875 C-62.96556641 84.97759277 -62.57175781 85.5684668 -62.16601562 86.17724609 C-61 88 -61 88 -59.94335938 90.01416016 C-58.77915002 92.0423515 -57.79375864 93.49421204 -56 95 C-52.6198838 95.77222717 -49.4252913 95.34275575 -46 95 C-43.67988588 94.8852395 -41.35955428 94.77482106 -39.0390625 94.66796875 C-36.56746024 94.51168784 -34.09610435 94.35146565 -31.625 94.1875 C-29.73974609 94.08211914 -29.73974609 94.08211914 -27.81640625 93.97460938 C-26.61113281 93.89404297 -25.40585938 93.81347656 -24.1640625 93.73046875 C-23.07561035 93.66239014 -21.9871582 93.59431152 -20.86572266 93.52416992 C-17.65432465 92.93677245 -16.34967917 92.23012492 -14 90 C-13.39958792 87.81228885 -13.39958792 87.81228885 -13.48583984 85.3359375 C-13.4725766 84.39065186 -13.45931335 83.44536621 -13.44564819 82.47143555 C-13.45069366 81.44961182 -13.45573914 80.42778809 -13.4609375 79.375 C-13.44914459 78.31772705 -13.43735168 77.2604541 -13.42520142 76.17114258 C-13.3898444 72.7806139 -13.38077058 69.39069804 -13.375 66 C-13.35858377 62.6380527 -13.33631073 59.27637791 -13.30337524 55.91455078 C-13.28397307 53.82315018 -13.27438518 51.73162629 -13.27645874 49.64013672 C-13.21111776 40.52757649 -11.91572317 31.92788231 -8.875 23.3125 C-8.52179688 22.29800781 -8.16859375 21.28351563 -7.8046875 20.23828125 C-7.53914062 19.49964844 -7.27359375 18.76101562 -7 18 C-7.66 18 -8.32 18 -9 18 C-9.125 11.375 -9.125 11.375 -8 8 C-6.02 8 -4.04 8 -2 8 C-1.855625 7.05125 -1.71125 6.1025 -1.5625 5.125 C-1 2 -1 2 0 0 Z " fill="#834E27" transform="translate(220,73)"/>
<path d="M0 0 C0.66 0 1.32 0 2 0 C7.73258556 8.33830627 6.07263716 17.31664541 4.54296875 26.84765625 C4.21656456 28.56459537 3.87891483 30.27942692 3.53125 31.9921875 C2.85629819 35.81360581 2.46054915 39.64135184 2.0625 43.5 C1.39906742 49.87189839 0.54306016 56.17928924 -0.5 62.5 C-1.7692508 70.21666551 -2.71083443 77.93178739 -3.53515625 85.70703125 C-4.41192322 93.94641637 -5.41727092 102.17628334 -7 110.3125 C-8.09108102 115.98953094 -8.6702375 121.7051331 -9.21484375 127.45629883 C-9.71919956 132.46612263 -10.67881006 137.13912199 -12 142 C-14.97 142 -17.94 142 -21 142 C-20.45445125 133.32968946 -19.48104828 124.83862303 -18.06640625 116.26953125 C-17.87274979 115.06717834 -17.67909332 113.86482544 -17.47956848 112.6260376 C-16.95397039 109.36480941 -16.42407965 106.10431181 -15.8927536 102.84401321 C-14.86937371 96.54882136 -13.86362936 90.25076819 -12.85546875 83.953125 C-12.73965706 83.23068666 -12.62384537 82.50824833 -12.50452423 81.76391792 C-9.69251753 64.21231295 -7.0253509 46.63912699 -4.375 29.0625 C-4.15122591 27.57955762 -3.92744057 26.09661694 -3.7036438 24.61367798 C-2.46583011 16.40960909 -1.23113695 8.2050737 0 0 Z " fill="#643617" transform="translate(91,142)"/>
<path d="M0 0 C2.1294432 2.1294432 1.7053304 6.55187495 2 9.5 C2.08757568 10.34844482 2.17515137 11.19688965 2.26538086 12.07104492 C2.90647841 18.50293233 3.36085651 24.93395554 3.65820312 31.390625 C3.79860173 34.2845555 4.01517251 37.09019876 4.49609375 39.94921875 C5.25091104 44.51908154 5.38616731 49.1010815 5.60546875 53.72265625 C5.82178958 57.8924267 6.30569682 61.87791656 7 66 C7.17355232 68.53992449 7.31652371 71.08202899 7.4375 73.625 C8.02617248 83.43620795 9.02199265 93.21992646 10 103 C24.19 103 38.38 103 53 103 C53 103.33 53 103.66 53 104 C38.81 104 24.62 104 10 104 C10 106.97 10 109.94 10 113 C8.06494977 113.24900646 6.12674066 113.47356242 4.1875 113.6875 C3.10855469 113.81511719 2.02960938 113.94273437 0.91796875 114.07421875 C-2 114 -2 114 -3.78125 112.91796875 C-5.47533297 110.25195998 -6.02105919 107.70684796 -6.6875 104.625 C-6.93886719 103.50351562 -7.19023437 102.38203125 -7.44921875 101.2265625 C-7.93255384 98.39511013 -8.11251617 95.86112546 -8 93 C-7.34 93 -6.68 93 -6 93 C-5.73445313 94.03640625 -5.46890625 95.0728125 -5.1953125 96.140625 C-4.83877553 97.51047756 -4.4819917 98.88026588 -4.125 100.25 C-3.95097656 100.93191406 -3.77695313 101.61382812 -3.59765625 102.31640625 C-2.69855538 105.74630957 -1.76630043 108.9129524 0 112 C1.32 112 2.64 112 4 112 C1.8494143 83.95165197 -0.6480237 56.42616073 -8.109375 29.203125 C-9.57741638 23.79339253 -10.65854952 18.63199206 -11.25 13.0625 C-11.32734375 12.36705078 -11.4046875 11.67160156 -11.484375 10.95507812 C-11.66650939 9.30448524 -11.83497799 7.65239147 -12 6 C-12.72574219 6.16371094 -13.45148438 6.32742187 -14.19921875 6.49609375 C-16.82038731 6.96768475 -19.15697867 7.10213465 -21.8125 7.0625 C-22.60269531 7.05347656 -23.39289063 7.04445312 -24.20703125 7.03515625 C-24.79871094 7.02355469 -25.39039063 7.01195312 -26 7 C-26.33 5.02 -26.66 3.04 -27 1 C-7.77785664 -0.47054649 -7.77785664 -0.47054649 0 0 Z " fill="#A76C39" transform="translate(199,172)"/>
<path d="M0 0 C1.10214844 0.09732422 2.20429687 0.19464844 3.33984375 0.29492188 C11.41065956 1.21183716 11.41065956 1.21183716 14.8359375 4.69140625 C16.10832308 7.89550448 16.70763009 10.38141692 16.875 13.8125 C16.93171875 14.77929688 16.9884375 15.74609375 17.046875 16.7421875 C17.07265625 17.46664062 17.0984375 18.19109375 17.125 18.9375 C13.69484539 16.13100987 13.7240235 14.73457049 12.125 9.9375 C7.175 9.9375 2.225 9.9375 -2.875 9.9375 C-2.95540527 11.14696289 -3.03581055 12.35642578 -3.11865234 13.60253906 C-3.42209044 18.14299451 -3.73337158 22.68288562 -4.046875 27.22265625 C-4.18080997 29.1775917 -4.31269303 31.13266896 -4.44238281 33.08789062 C-6.08898566 57.86293046 -6.08898566 57.86293046 -7.875 63.9375 C-8.865 64.4325 -8.865 64.4325 -9.875 64.9375 C-10.0163571 57.06637754 -9.58198495 49.28518653 -9 41.4375 C-8.91121582 40.21385742 -8.82243164 38.99021484 -8.73095703 37.72949219 C-8.01073556 28.10206769 -7.06615271 18.51740907 -5.875 8.9375 C-8.845 8.6075 -11.815 8.2775 -14.875 7.9375 C-14.2890625 1.78515625 -14.2890625 1.78515625 -13.875 -0.0625 C-9.79508342 -2.10245829 -4.41019974 -0.49429068 0 0 Z " fill="#AD723F" transform="translate(80.875,132.0625)"/>
<path d="M0 0 C0.33 0 0.66 0 1 0 C1.10957031 0.98097656 1.21914062 1.96195313 1.33203125 2.97265625 C2.13380839 9.87622501 3.07154518 16.64050008 4.5625 23.4375 C6.28594221 31.67555377 6.58160445 39.57231811 7 48 C7.66 54.6 8.32 61.2 9 68 C23.19 68 37.38 68 52 68 C52 68.33 52 68.66 52 69 C37.81 69 23.62 69 9 69 C9 71.97 9 74.94 9 78 C7.06494977 78.24900646 5.12674066 78.47356242 3.1875 78.6875 C2.10855469 78.81511719 1.02960938 78.94273437 -0.08203125 79.07421875 C-3 79 -3 79 -4.78125 77.91796875 C-6.47533297 75.25195998 -7.02105919 72.70684796 -7.6875 69.625 C-7.93886719 68.50351562 -8.19023437 67.38203125 -8.44921875 66.2265625 C-8.93255384 63.39511013 -9.11251617 60.86112546 -9 58 C-8.34 58 -7.68 58 -7 58 C-6.73445312 59.03640625 -6.46890625 60.0728125 -6.1953125 61.140625 C-5.83877553 62.51047756 -5.4819917 63.88026588 -5.125 65.25 C-4.95097656 65.93191406 -4.77695313 66.61382812 -4.59765625 67.31640625 C-3.69855538 70.74630957 -2.76630043 73.9129524 -1 77 C0.98 77 2.96 77 5 77 C4.88406494 75.84588623 4.76812988 74.69177246 4.64868164 73.50268555 C4.21391825 69.1733104 3.77983597 64.84386718 3.34594727 60.5144043 C3.15895526 58.64947714 2.97178467 56.78456787 2.78442383 54.91967773 C2.25742748 49.67360471 1.73555224 44.42706481 1.21829224 39.18002319 C1.03642783 37.36379452 0.84454033 35.54857296 0.65014648 33.73364258 C-0.08598024 26.58726946 -0.11490868 19.49248894 -0.0625 12.3125 C-0.05798828 11.12205078 -0.05347656 9.93160156 -0.04882812 8.70507812 C-0.03717452 5.80333064 -0.02081559 2.90169374 0 0 Z " fill="#A87348" transform="translate(200,207)"/>
<path d="M0 0 C0.6918445 0.00082203 1.383689 0.00164406 2.09649849 0.002491 C19.38210558 0.03467015 36.64761545 0.645988 53.91821289 1.3203125 C58.36645845 1.49375659 62.81508083 1.65385312 67.26393795 1.81072044 C70.74814143 1.9353062 74.2320204 2.06760512 77.71585274 2.20213699 C79.3578499 2.26448339 80.99994528 2.32430293 82.64213371 2.38138962 C99.31123677 2.96796626 99.31123677 2.96796626 106.24609375 5.1484375 C107.80859375 7.7734375 107.80859375 7.7734375 108.24609375 10.1484375 C108.90609375 10.1484375 109.56609375 10.1484375 110.24609375 10.1484375 C110.24609375 13.7784375 110.24609375 17.4084375 110.24609375 21.1484375 C109.91609375 21.1484375 109.58609375 21.1484375 109.24609375 21.1484375 C109.11332031 20.53355469 108.98054687 19.91867188 108.84375 19.28515625 C108.57884766 18.07279297 108.57884766 18.07279297 108.30859375 16.8359375 C108.13457031 16.03542969 107.96054688 15.23492187 107.78125 14.41015625 C107.24723216 12.0030365 107.24723216 12.0030365 106.24609375 9.1484375 C102.61609375 8.8184375 98.98609375 8.4884375 95.24609375 8.1484375 C95.24609375 7.4884375 95.24609375 6.8284375 95.24609375 6.1484375 C80.06609375 6.1484375 64.88609375 6.1484375 49.24609375 6.1484375 C49.24609375 5.4884375 49.24609375 4.8284375 49.24609375 4.1484375 C48.11300781 4.17164062 46.97992188 4.19484375 45.8125 4.21875 C32.697302 4.39251517 19.69958601 3.73888174 6.62133789 2.85986328 C-6.18049437 1.71010322 -6.18049437 1.71010322 -18.75390625 3.6484375 C-19.70265625 3.926875 -20.65140625 4.2053125 -21.62890625 4.4921875 C-22.33015625 4.70875 -23.03140625 4.9253125 -23.75390625 5.1484375 C-23.75390625 6.1384375 -23.75390625 7.1284375 -23.75390625 8.1484375 C-25.40390625 8.8084375 -27.05390625 9.4684375 -28.75390625 10.1484375 C-28.81640625 7.8984375 -28.81640625 7.8984375 -27.75390625 5.1484375 C-19.08050198 -0.28808807 -9.88498724 -0.02900188 0 0 Z " fill="#92592E" transform="translate(69.75390625,107.8515625)"/>
<path d="M0 0 C9.89790054 0.61867883 19.71925422 1.53126562 29.5625 2.75 C30.22644775 2.8221875 30.89039551 2.894375 31.57446289 2.96875 C33.53249304 3.18230995 35.48708064 3.42671933 37.44140625 3.671875 C39.15372437 3.87441895 39.15372437 3.87441895 40.90063477 4.08105469 C46.66649073 5.79060032 49.73391571 10.7657659 53.1875 15.4375 C53.96480469 16.47390625 54.74210937 17.5103125 55.54296875 18.578125 C57.28251244 20.95320426 58.90475953 23.37780123 60.48828125 25.859375 C64.4635301 32.59966063 64.4635301 32.59966063 70.5625 37 C72.95949635 37.25397791 72.95949635 37.25397791 75.1875 36.98046875 C75.785625 36.98691406 76.38375 36.99335938 77 37 C79.4294516 40.6441774 79.16179575 42.71241272 79 47 C77 44 77 44 77 41 C75.80375 41.103125 74.6075 41.20625 73.375 41.3125 C70.06703168 41.59766968 68.95716402 40.97109157 66.140625 39.0703125 C62.1254717 35.48385716 59.31878791 31.02976694 56.375 26.5625 C55.81554687 25.72912109 55.25609375 24.89574219 54.6796875 24.03710938 C50.10906731 17.21890827 50.10906731 17.21890827 48.41674805 13.82226562 C44.88246762 9.69495158 41.53756441 9.76313084 36.30859375 9.27734375 C35.36693863 9.16451553 34.42528351 9.05168732 33.45509338 8.93544006 C30.45152571 8.57703481 27.4457795 8.25374331 24.4375 7.9375 C21.42595904 7.61618245 18.41661249 7.286807 15.40919495 6.92884827 C13.53970428 6.70652121 11.66756047 6.50527118 9.7933197 6.32737732 C3.4665806 5.57824277 3.4665806 5.57824277 0.90258789 2.40063477 C0.60473389 1.60842529 0.30687988 0.81621582 0 0 Z " fill="#6A3E21" transform="translate(94,136)"/>
<path d="M0 0 C12.74637949 0.65078346 25.35309062 2.343152 38 4 C37.67 5.65 37.34 7.3 37 9 C30.88398996 8.46047961 24.77221365 7.88667693 18.66357422 7.26904297 C17.03545381 7.10458938 15.40694754 6.94383529 13.77783203 6.78955078 C11.97435167 6.61310871 10.1743564 6.40195224 8.375 6.1875 C7.39273438 6.07792969 6.41046875 5.96835938 5.3984375 5.85546875 C2.16626113 4.70262408 1.44885401 3.01925618 0 0 Z " fill="#623517" transform="translate(94,136)"/>
<path d="M0 0 C0.93199219 0.1340625 1.86398438 0.268125 2.82421875 0.40625 C4.28794922 0.62667969 4.28794922 0.62667969 5.78125 0.8515625 C7.24498047 1.06039062 7.24498047 1.06039062 8.73828125 1.2734375 C16.00608488 2.33897994 16.00608488 2.33897994 18.28125 3.4765625 C18.28125 5.1265625 18.28125 6.7765625 18.28125 8.4765625 C9.48419908 8.85720413 0.96961995 7.68387942 -7.71875 6.4765625 C-7.34375 3.5390625 -7.34375 3.5390625 -6.71875 0.4765625 C-4.14238272 -0.81162114 -2.83658404 -0.41246792 0 0 Z " fill="#D5A470" transform="translate(73.71875,131.5234375)"/>
<path d="M0 0 C5.75416349 5.75416349 6.65780406 19.97775958 8.140625 27.74609375 C9.37302356 34.03531179 10.88505085 40.26782642 12.37475586 46.50024414 C12.58495361 47.3999292 12.79515137 48.29961426 13.01171875 49.2265625 C13.20209717 50.02658691 13.39247559 50.82661133 13.58862305 51.65087891 C14.0253039 54.144495 14.07088031 56.47352317 14 59 C10.65881173 56.37114628 10.19293718 53.62133842 9.31640625 49.55859375 C9.10564453 48.60503746 9.10564453 48.60503746 8.890625 47.63221741 C8.43725813 45.56947029 7.9996026 43.50374894 7.5625 41.4375 C7.25544052 40.02192584 6.94741378 38.60656114 6.63842773 37.19140625 C6.03014952 34.40059613 5.42734202 31.6086865 4.828125 28.81591797 C4.13036342 25.60070173 3.40706583 22.39453952 2.65625 19.19140625 C2.46732178 18.37937744 2.27839355 17.56734863 2.08374023 16.73071289 C1.74952127 15.30038097 1.4108849 13.87106982 1.06665039 12.44311523 C0.10190699 8.22955943 -0.1390346 4.31563388 0 0 Z " fill="#72482A" transform="translate(178,205)"/>
<path d="M0 0 C0.33 0 0.66 0 1 0 C1.01417969 0.95519531 1.02835938 1.91039063 1.04296875 2.89453125 C1.40598229 12.73514161 2.57652552 21.78660302 9.8125 29.1875 C10.534375 29.785625 11.25625 30.38375 12 31 C7.59297022 34.06043735 7.59297022 34.06043735 4.96875 33.79296875 C2.00289579 32.59838858 1.03268249 30.37079293 -0.24609375 27.5625 C-2.78311109 18.93927008 -0.88889035 8.80953833 0 0 Z " fill="#995E2F" transform="translate(189,80)"/>
<path d="M0 0 C0.66 0 1.32 0 2 0 C1.67 2.97 1.34 5.94 1 9 C1.99 8.67 2.98 8.34 4 8 C4.88327729 11.0526063 5.1633007 13.82505177 5.1875 17 C5.20167969 17.845625 5.21585938 18.69125 5.23046875 19.5625 C4.98543096 22.15408616 4.30584901 23.77024992 3 26 C0.22621725 23.60446035 -0.88811948 21.48294196 -2 18 C-2.265625 14.3359375 -2.265625 14.3359375 -2.25 10.375 C-2.25515625 9.06273438 -2.2603125 7.75046875 -2.265625 6.3984375 C-2 3 -2 3 0 0 Z " fill="#AC7340" transform="translate(194,76)"/>
<path d="M0 0 C0.33 1.32 0.66 2.64 1 4 C-8.01021873 4.58535064 -16.9656016 5.14340315 -26 5 C-26.33 3.68 -26.66 2.36 -27 1 C-17.97582223 0.30962574 -9.05638678 -0.15178302 0 0 Z " fill="#D09C66" transform="translate(199,172)"/>
<path d="M0 0 C8.64966831 0.77347456 17.29533652 1.5842231 25.9375 2.4375 C27.23751953 2.55931641 28.53753906 2.68113281 29.87695312 2.80664062 C31.12283203 2.93103516 32.36871094 3.05542969 33.65234375 3.18359375 C35.33831665 3.34686157 35.33831665 3.34686157 37.05834961 3.51342773 C39.78942815 3.96516975 41.63682646 4.60124021 44 6 C40.97893247 5.85815167 37.95820903 5.71164333 34.9375 5.5625 C34.08994141 5.52318359 33.24238281 5.48386719 32.36914062 5.44335938 C27.51999791 5.19996611 22.79371788 4.77401958 18 4 C18 4.66 18 5.32 18 6 C15.06121273 5.71840367 12.12439587 5.42518615 9.1875 5.125 C7.93743164 5.00705078 7.93743164 5.00705078 6.66210938 4.88671875 C5.85966797 4.80292969 5.05722656 4.71914062 4.23046875 4.6328125 C3.49207764 4.55949707 2.75368652 4.48618164 1.99291992 4.41064453 C0 4 0 4 -3 2 C-2.01 2 -1.02 2 0 2 C0 1.34 0 0.68 0 0 Z " fill="#916039" transform="translate(70,128)"/>
<path d="M0 0 C0.33 0 0.66 0 1 0 C0.62426004 6.81028683 -2.23845522 11.79289452 -5.5 17.6875 C-6.51422108 19.54349903 -7.52479242 21.40149835 -8.53125 23.26171875 C-9.20510742 24.48314575 -9.20510742 24.48314575 -9.89257812 25.72924805 C-11.074451 27.9294174 -11.074451 27.9294174 -11.49414062 30.21801758 C-11.66107422 30.80607178 -11.82800781 31.39412598 -12 32 C-14.5625 33.25 -14.5625 33.25 -17 34 C-15.69093075 29.77574028 -14.07997198 25.96747425 -12.03125 22.05078125 C-11.46019531 20.95572266 -10.88914063 19.86066406 -10.30078125 18.73242188 C-9.40939453 17.03956055 -9.40939453 17.03956055 -8.5 15.3125 C-7.90574219 14.17232422 -7.31148437 13.03214844 -6.69921875 11.85742188 C-2.29698231 3.44547347 -2.29698231 3.44547347 0 0 Z " fill="#A46C3E" transform="translate(209,40)"/>
<path d="M0 0 C-0.33 1.32 -0.66 2.64 -1 4 C-1 3.01 -1 2.02 -1 1 C-5.455 1.495 -5.455 1.495 -10 2 C-9.67 3.36125 -9.34 4.7225 -9 6.125 C-8.17007504 9.82459506 -7.80474296 13.19248768 -8 17 C-8.66 17 -9.32 17 -10 17 C-11.485 9.575 -11.485 9.575 -13 2 C-14.65 2.33 -16.3 2.66 -18 3 C-19.60303627 3.06371368 -21.20837672 3.08644214 -22.8125 3.0625 C-23.60269531 3.05347656 -24.39289063 3.04445312 -25.20703125 3.03515625 C-25.79871094 3.02355469 -26.39039063 3.01195312 -27 3 C-27 2.34 -27 1.68 -27 1 C-17.98185679 -0.14516104 -9.0719352 -0.09471858 0 0 Z " fill="#B57944" transform="translate(200,176)"/>
<path d="M0 0 C16.67591745 -0.46393588 16.67591745 -0.46393588 22 2 C23.5625 4.625 23.5625 4.625 24 7 C24.66 7 25.32 7 26 7 C26 10.63 26 14.26 26 18 C25.67 18 25.34 18 25 18 C24.80083984 17.07767578 24.80083984 17.07767578 24.59765625 16.13671875 C24.42105469 15.32847656 24.24445313 14.52023438 24.0625 13.6875 C23.88847656 12.88699219 23.71445313 12.08648437 23.53515625 11.26171875 C23.00113841 8.854599 23.00113841 8.854599 22 6 C20.35 6 18.7 6 17 6 C16.67 5.34 16.34 4.68 16 4 C13.30202898 3.36139231 10.66633377 2.83174758 7.9375 2.375 C7.17888672 2.2409375 6.42027344 2.106875 5.63867188 1.96875 C3.76047742 1.63799878 1.88039662 1.31799266 0 1 C0 0.67 0 0.34 0 0 Z " fill="#B37C4C" transform="translate(154,111)"/>
<path d="M0 0 C0.66 0 1.32 0 2 0 C2.26554688 1.03640625 2.53109375 2.0728125 2.8046875 3.140625 C3.16122447 4.51047756 3.5180083 5.88026588 3.875 7.25 C4.04902344 7.93191406 4.22304687 8.61382812 4.40234375 9.31640625 C5.32292128 12.82823906 6.36386954 15.72773908 8 19 C11.3 18.67 14.6 18.34 18 18 C18 18.66 18 19.32 18 20 C16.06494977 20.24900646 14.12674066 20.47356242 12.1875 20.6875 C11.10855469 20.81511719 10.02960938 20.94273437 8.91796875 21.07421875 C6 21 6 21 4.21875 19.91796875 C2.52466703 17.25195998 1.97894081 14.70684796 1.3125 11.625 C1.06113281 10.50351562 0.80976563 9.38203125 0.55078125 8.2265625 C0.06744616 5.39511013 -0.11251617 2.86112546 0 0 Z " fill="#784825" transform="translate(191,265)"/>
<path d="M0 0 C1.21945313 -0.01417969 2.43890625 -0.02835937 3.6953125 -0.04296875 C6.875 0.1875 6.875 0.1875 9.875 2.1875 C8.84761719 2.15269531 7.82023437 2.11789063 6.76171875 2.08203125 C-1.70047116 1.88561678 -9.04447163 2.31137973 -17.125 5.1875 C-17.125 6.1775 -17.125 7.1675 -17.125 8.1875 C-18.775 8.8475 -20.425 9.5075 -22.125 10.1875 C-22.1875 7.9375 -22.1875 7.9375 -21.125 5.1875 C-14.51763917 1.04597898 -7.67373659 0.04073109 0 0 Z " fill="#834C24" transform="translate(63.125,107.8125)"/>
<path d="M0 0 C0.66 0 1.32 0 2 0 C2.01417969 0.94359375 2.02835938 1.8871875 2.04296875 2.859375 C2.37839072 11.88857179 3.87097725 18.81170151 8 27 C8.33 27.66 8.66 28.32 9 29 C5.28228265 27.55422103 3.99005581 25.93029921 2.25 22.375 C-0.93718538 15.05519503 -0.44078141 7.80672851 0 0 Z " fill="#633514" transform="translate(190,79)"/>
<path d="M0 0 C16.70842825 0.96355353 16.70842825 0.96355353 25 2 C25 2.66 25 3.32 25 4 C16.20294908 4.38064163 7.68836995 3.20731692 -1 2 C-0.67 1.34 -0.34 0.68 0 0 Z " fill="#C8925F" transform="translate(67,136)"/>
<path d="M0 0 C1.65 0.99 3.3 1.98 5 3 C4.8125 5.375 4.8125 5.375 4 8 C1.6875 9.1875 1.6875 9.1875 -1 10 C-2.98 10.99 -2.98 10.99 -5 12 C-3.35 8.04 -1.7 4.08 0 0 Z " fill="#AB7343" transform="translate(222,19)"/>
<path d="M0 0 C0.33 0 0.66 0 1 0 C1.06058594 1.02480469 1.12117187 2.04960938 1.18359375 3.10546875 C1.26805026 4.46615695 1.35269567 5.82683343 1.4375 7.1875 C1.47681641 7.86103516 1.51613281 8.53457031 1.55664062 9.22851562 C1.78927565 12.89699102 2.17207011 16.41694206 3 20 C2.01 20.33 1.02 20.66 0 21 C-0.73323796 23.01508358 -0.73323796 23.01508358 -1 25 C-1.12190678 16.60197746 -0.84327749 8.35748222 0 0 Z " fill="#BB8E67" transform="translate(189,80)"/>
<path d="M0 0 C0.33 0.99 0.66 1.98 1 3 C1.66 3 2.32 3 3 3 C3 6.96 3 10.92 3 15 C0.14481056 12.14481056 -0.87098365 10.9504236 -1.1328125 6.9921875 C-1.11111111 1.11111111 -1.11111111 1.11111111 0 0 Z " fill="#BD8853" transform="translate(194,87)"/>
<path d="M0 0 C1.65 0.33 3.3 0.66 5 1 C4.30058404 4.14737182 3.23921302 7.02588876 2 10 C1.01 10 0.02 10 -1 10 C-1.125 3.375 -1.125 3.375 0 0 Z " fill="#1D1915" transform="translate(212,81)"/>
<path d="M0 0 C0.66 0 1.32 0 2 0 C0.9318153 5.11365014 -0.23107476 10.07227969 -2 15 C-2.99 15 -3.98 15 -5 15 C-4.54705135 13.24859857 -4.08741252 11.49892656 -3.625 9.75 C-3.36976563 8.77546875 -3.11453125 7.8009375 -2.8515625 6.796875 C-2.10401491 4.34162697 -1.22876183 2.24382595 0 0 Z " fill="#F3EFED" transform="translate(211,91)"/>
<path d="M0 0 C0.33 0 0.66 0 1 0 C0.53574151 5.68716647 -0.77465309 9.25684278 -4 14 C-4.99 14.33 -5.98 14.66 -7 15 C-5.45454854 9.52067211 -2.84456788 4.88570819 0 0 Z " fill="#AB7343" transform="translate(209,40)"/>
<path d="M0 0 C0.99 0 1.98 0 3 0 C4.26305335 5.07476794 5.27036084 9.72796354 5 15 C4.34 15 3.68 15 3 15 C2.01 10.05 1.02 5.1 0 0 Z " fill="#AB7341" transform="translate(187,178)"/>
<path d="M0 0 C0.99 0.33 1.98 0.66 3 1 C2.01 3.31 1.02 5.62 0 8 C-0.99 7.67 -1.98 7.34 -3 7 C-3.99 7.66 -4.98 8.32 -6 9 C-5.12467243 5.71752159 -4.49145848 3.49145848 -2.0625 1.0625 C-1.381875 0.711875 -0.70125 0.36125 0 0 Z " fill="#73421E" transform="translate(219,31)"/>
<path d="M0 0 C2.41802195 0.28270406 4.8340122 0.57579264 7.25 0.875 C7.93191406 0.95363281 8.61382812 1.03226562 9.31640625 1.11328125 C12.90696311 1.56645833 15.892507 2.09385738 19 4 C19 4.33 19 4.66 19 5 C17.02 5 15.04 5 13 5 C13 4.34 13 3.68 13 3 C11.783125 3.020625 10.56625 3.04125 9.3125 3.0625 C6.08022678 3.06824116 3.15065259 2.78766315 0 2 C0 1.34 0 0.68 0 0 Z " fill="#975C2E" transform="translate(152,111)"/>
<path d="M0 0 C0.66 0 1.32 0 2 0 C3.45184478 4.53701494 4.23509196 8.18061476 4 13 C3.34 13 2.68 13 2 13 C-0.28571429 4.57142857 -0.28571429 4.57142857 0 0 Z " fill="#6B4124" transform="translate(191,265)"/>
<path d="M0 0 C1.32 0.33 2.64 0.66 4 1 C4 1.99 4 2.98 4 4 C1.6875 5.125 1.6875 5.125 -1 6 C-1.99 5.34 -2.98 4.68 -4 4 C-3.34 4 -2.68 4 -2 4 C-1.34 2.68 -0.68 1.36 0 0 Z " fill="#A86B38" transform="translate(196,108)"/>
<path d="M0 0 C0.66 0 1.32 0 2 0 C3.45184478 4.53701494 4.23509196 8.18061476 4 13 C2 12 2 12 0.875 9.3125 C0.01110926 6.0420565 -0.16013991 3.36293818 0 0 Z " fill="#6D4020" transform="translate(182,224)"/>
<path d="M0 0 C1.65 0 3.3 0 5 0 C5.33 1.32 5.66 2.64 6 4 C3.36 4 0.72 4 -2 4 C-2 3.34 -2 2.68 -2 2 C-1.34 2 -0.68 2 0 2 C0 1.34 0 0.68 0 0 Z " fill="#CA945F" transform="translate(194,172)"/>
<path d="M0 0 C8.57142857 -0.14285714 8.57142857 -0.14285714 12 1 C12 1.66 12 2.32 12 3 C7.71 2.67 3.42 2.34 -1 2 C-0.67 1.34 -0.34 0.68 0 0 Z " fill="#CD9967" transform="translate(67,136)"/>
<path d="M0 0 C1.98 0 3.96 0 6 0 C6.33 1.32 6.66 2.64 7 4 C4.69 4 2.38 4 0 4 C0 2.68 0 1.36 0 0 Z " fill="#1F1812" transform="translate(76,125)"/>
<path d="M0 0 C1.65 0 3.3 0 5 0 C4.67 1.65 4.34 3.3 4 5 C2.02 5.66 0.04 6.32 -2 7 C-2.33 6.34 -2.66 5.68 -3 5 C-1.68 4.34 -0.36 3.68 1 3 C0.67 2.01 0.34 1.02 0 0 Z " fill="#714629" transform="translate(199,108)"/>
<path d="M0 0 C-0.33 1.32 -0.66 2.64 -1 4 C-2.65 4.33 -4.3 4.66 -6 5 C-6.33 3.68 -6.66 2.36 -7 1 C-2.25 0 -2.25 0 0 0 Z " fill="#693F21" transform="translate(206,170)"/>
<path d="M0 0 C0.99 0.33 1.98 0.66 3 1 C2.13375 1.8353125 2.13375 1.8353125 1.25 2.6875 C-1.0110273 5.01133361 -3.01064607 7.44225924 -5 10 C-5.33 9.01 -5.66 8.02 -6 7 C-4.78515625 5.17578125 -4.78515625 5.17578125 -3.0625 3.3125 C-2.49660156 2.68988281 -1.93070313 2.06726562 -1.34765625 1.42578125 C-0.90292969 0.95527344 -0.45820313 0.48476563 0 0 Z " fill="#A46B3C" transform="translate(216,31)"/>
<path d="M0 0 C1.65 0 3.3 0 5 0 C5.33 1.32 5.66 2.64 6 4 C3.36 4 0.72 4 -2 4 C-1.34 3.67 -0.68 3.34 0 3 C0 2.01 0 1.02 0 0 Z " fill="#34302D" transform="translate(83,126)"/>
<path d="M0 0 C0.99 0.495 0.99 0.495 2 1 C3.1577506 4.47325181 3.06866652 7.36067448 3 11 C2.34 11 1.68 11 1 11 C0.67 7.37 0.34 3.74 0 0 Z " fill="#74492B" transform="translate(175,193)"/>
<path d="M0 0 C1.98 0.99 1.98 0.99 4 2 C3.25 8.75 3.25 8.75 1 11 C0.67 7.37 0.34 3.74 0 0 Z " fill="#9F612D" transform="translate(198,84)"/>
<path d="M0 0 C2.97 0.495 2.97 0.495 6 1 C6 1.99 6 2.98 6 4 C3.69 4 1.38 4 -1 4 C-0.67 2.68 -0.34 1.36 0 0 Z " fill="#171513" transform="translate(125,131)"/>
<path d="M0 0 C0.66 0 1.32 0 2 0 C0.79157144 4.43090471 -0.51668565 6.98112756 -4 10 C-3.29445932 6.33118845 -1.72264494 3.29549466 0 0 Z " fill="#9B5D2C" transform="translate(200,95)"/>
<path d="M0 0 C1.65 0.33 3.3 0.66 5 1 C5 1.99 5 2.98 5 4 C2.69 4 0.38 4 -2 4 C-1.34 3.67 -0.68 3.34 0 3 C0 2.01 0 1.02 0 0 Z " fill="#33302D" transform="translate(131,132)"/>
<path d="M0 0 C0.66 0.33 1.32 0.66 2 1 C2 4 2 4 0.5 5.6875 C0.005 6.120625 -0.49 6.55375 -1 7 C-1.99 6.67 -2.98 6.34 -4 6 C-1.125 1.125 -1.125 1.125 0 0 Z " fill="#8E582E" transform="translate(194,72)"/>
<path d="M0 0 C1.485 0.99 1.485 0.99 3 2 C3.1875 5.625 3.1875 5.625 3 9 C1.5 7.875 1.5 7.875 0 6 C-0.1875 2.8125 -0.1875 2.8125 0 0 Z " fill="#A47249" transform="translate(189,102)"/>
<path d="M0 0 C0.99 0.66 1.98 1.32 3 2 C2.25 4.4375 2.25 4.4375 1 7 C-0.32 7.33 -1.64 7.66 -3 8 C-2.01 5.36 -1.02 2.72 0 0 Z " fill="#D2A375" transform="translate(222,19)"/>
<path d="M0 0 C2.125 0.375 2.125 0.375 4 1 C3.67 2.32 3.34 3.64 3 5 C1.68 5 0.36 5 -1 5 C-1.33 4.01 -1.66 3.02 -2 2 C-1.34 1.34 -0.68 0.68 0 0 Z " fill="#3D2514" transform="translate(128,140)"/>
<path d="M0 0 C0.99 0.33 1.98 0.66 3 1 C3.33 2.98 3.66 4.96 4 7 C3.01 7 2.02 7 1 7 C0.67 4.69 0.34 2.38 0 0 Z " fill="#7A5033" transform="translate(184,236)"/>
<path d="M0 0 C0.99 0 1.98 0 3 0 C3 0.66 3 1.32 3 2 C3.66 2.33 4.32 2.66 5 3 C1.7 3.33 -1.6 3.66 -5 4 C-5 3.67 -5 3.34 -5 3 C-3.35 3 -1.7 3 0 3 C0 2.01 0 1.02 0 0 Z " fill="#CA915A" transform="translate(182,173)"/>
<path d="M0 0 C0.99 0 1.98 0 3 0 C3 1.32 3 2.64 3 4 C1.35 4 -0.3 4 -2 4 C-1.34 2.68 -0.68 1.36 0 0 Z " fill="#DAAF7F" transform="translate(77,133)"/>
<path d="M0 0 C0.99 0 1.98 0 3 0 C3 3.63 3 7.26 3 11 C2.67 11 2.34 11 2 11 C1.34 7.37 0.68 3.74 0 0 Z " fill="#B2835B" transform="translate(177,118)"/>
</svg>
